<svg width="24" height="25" viewBox="0 0 24 25" fill="none" xmlns="http://www.w3.org/2000/svg">
<path fill-rule="evenodd" clip-rule="evenodd" d="M21.1819 21.3378H20.5253V11.6031C20.5253 11.4694 20.4541 11.3587 20.3594 11.2862C20.2786 11.2244 20.1761 11.1858 20.0663 11.1759C20.0008 11.0474 19.8923 10.9384 19.7567 10.8606L17.0089 9.28373V6.81985C17.0089 6.68609 16.9377 6.57539 16.843 6.50294C16.7622 6.44109 16.6598 6.40255 16.5499 6.39267C16.4845 6.2641 16.3759 6.15513 16.2404 6.07734L11.9297 3.60361V3.53141C11.9297 3.3152 11.8144 3.12978 11.6491 3.00327C11.4838 2.87683 11.262 2.80273 11.0234 2.80273H9.46059C9.22194 2.80273 9.00018 2.87683 8.83492 3.00327C8.66958 3.12978 8.55433 3.31519 8.55433 3.53139V3.60361L4.24367 6.07734C4.1081 6.15513 3.99958 6.2641 3.93413 6.39267C3.82428 6.40255 3.72184 6.44109 3.64101 6.50294C3.54632 6.57539 3.47509 6.68609 3.47509 6.81985V21.3378H2.81853C2.68756 21.3378 2.56345 21.3782 2.4689 21.4506C2.37421 21.523 2.30298 21.6337 2.30298 21.7675C2.30298 21.9012 2.37421 22.0119 2.4689 22.0844C2.56345 22.1567 2.68756 22.1972 2.81853 22.1972H21.1819C21.3128 22.1972 21.437 22.1567 21.5315 22.0844C21.6262 22.0119 21.6974 21.9012 21.6974 21.7675C21.6974 21.6337 21.6262 21.523 21.5315 21.4506C21.437 21.3782 21.3129 21.3378 21.1819 21.3378ZM11.2764 4.27389L14.9642 6.39014H13.7583C13.6273 6.39014 13.5032 6.43059 13.4086 6.50294C13.3139 6.57539 13.2427 6.68609 13.2427 6.81985C13.2427 6.95361 13.3139 7.06432 13.4086 7.13677C13.5032 7.20911 13.6273 7.24955 13.7583 7.24955H15.9778V8.69201L15.4461 8.38687V8.31462C15.4461 8.09842 15.3308 7.91301 15.1655 7.7865C15.0002 7.66004 14.7785 7.58593 14.5398 7.58593H12.977C12.7384 7.58593 12.5166 7.66004 12.3513 7.7865C12.186 7.91301 12.0708 8.09842 12.0708 8.31462V8.38684L7.7601 10.8606C7.62456 10.9384 7.51599 11.0473 7.45054 11.1759C7.34069 11.1858 7.23826 11.2243 7.15744 11.2862C7.06275 11.3586 6.99152 11.4693 6.99152 11.6031V21.3378H4.5062V7.24955H12.1956C12.3265 7.24955 12.4506 7.20911 12.5452 7.13677C12.6399 7.06432 12.7111 6.95361 12.7111 6.81985C12.7111 6.68609 12.6399 6.57539 12.5452 6.50294C12.4506 6.43059 12.3265 6.39014 12.1956 6.39014H5.51982L9.20756 4.27389C9.43224 4.14493 9.58544 3.92766 9.58544 3.68086V3.66214H10.8986V3.68086C10.8986 3.9276 11.0517 4.14492 11.2764 4.27389ZM8.55428 21.3378H8.02257V12.0328H8.55428V21.3378ZM10.8986 21.3378H9.58544V20.4035H10.8986V21.3378ZM10.8986 19.5441H9.58544V19.2077H10.8986V19.5441ZM10.8986 18.3482H9.58544V18.0118H10.8986V18.3482ZM10.8986 17.1524H9.58544V16.8161H10.8986V17.1524ZM10.8986 15.9566H9.58544V15.6203H10.8986V15.9566ZM10.8986 14.7609H9.58544V14.4244H10.8986V14.7609ZM10.8986 13.565H9.58544V13.2286H10.8986V13.565ZM10.8986 12.3692H9.58544V12.0328H10.8986V12.3692ZM19.4942 21.3378H11.9297V12.0328H16.1025C16.2335 12.0328 16.3576 11.9924 16.4522 11.92C16.5469 11.8476 16.6181 11.7369 16.6181 11.6031C16.6181 11.4694 16.5469 11.3587 16.4522 11.2862C16.3576 11.2139 16.2335 11.1734 16.1025 11.1734H9.03625L12.724 9.05717C12.9488 8.92823 13.1019 8.7109 13.1019 8.46413V8.44538H14.415V8.46413C14.415 8.7109 14.5681 8.92823 14.7929 9.05717L18.4806 11.1734H17.6655C17.5345 11.1734 17.4104 11.2139 17.3158 11.2862C17.2211 11.3587 17.1499 11.4694 17.1499 11.6031C17.1499 11.7369 17.2211 11.8476 17.3158 11.92C17.4103 11.9924 17.5344 12.0328 17.6654 12.0328H19.4942V21.3378Z" fill="white"/>
</svg>
