<svg width="24" height="25" viewBox="0 0 24 25" fill="none" xmlns="http://www.w3.org/2000/svg">
<path fill-rule="evenodd" clip-rule="evenodd" d="M5.26709 8H4.26709V9H3.5C3.03428 9 2.59831 9.12734 2.225 9.34911L1.63388 8.64646L0.868652 9.29022L1.48385 10.0215C1.17968 10.4356 1 10.9468 1 11.5C1 11.9173 1.10226 12.3108 1.28309 12.6567L0.567139 13.259L1.2109 14.0242L1.91406 13.4327C2.22303 13.6865 2.59396 13.8677 3.00073 13.9501L2.98963 16.5179H2.37128C2.09514 16.5179 1.87128 16.7418 1.87128 17.0179C1.87128 17.2941 2.09514 17.5179 2.37128 17.5179H4.59351C4.86965 17.5179 5.09351 17.2941 5.09351 17.0179C5.09351 16.7418 4.86965 16.5179 4.59351 16.5179H3.98964L4.00053 14H5V14.9705H6V14H8V14.9705H9V14H10.5181L10.5072 16.5179H9.88886C9.61272 16.5179 9.38886 16.7418 9.38886 17.0179C9.38886 17.2941 9.61272 17.5179 9.88886 17.5179H12.1111C12.3872 17.5179 12.6111 17.2941 12.6111 17.0179C12.6111 16.7418 12.3872 16.5179 12.1111 16.5179H11.5072L11.5181 14H12.8203V14.9705H13.8203V14H15.7307V14.9705H16.7307V14H18.0354L18.0245 16.5179H17.4062C17.13 16.5179 16.9062 16.7418 16.9062 17.0179C16.9062 17.2941 17.13 17.5179 17.4062 17.5179H19.6284C19.9045 17.5179 20.1284 17.2941 20.1284 17.0179C20.1284 16.7418 19.9045 16.5179 19.6284 16.5179H19.0245L19.0357 13.9425C19.4394 13.8543 19.8067 13.6686 20.1116 13.4113L20.6709 13.9705L21.378 13.2634L20.7353 12.6208C20.9047 12.2837 21 11.903 21 11.5C21 11.0161 20.8625 10.5643 20.6244 10.1815L21.2552 9.55073L20.5481 8.84363L19.9374 9.4543C19.5308 9.16807 19.035 9 18.5 9H18.4116V8H17.4116V9H15.1255V8H14.1255V9H11.8394V8H10.8394V9H8.55322V8H7.55322V9H5.26709V8ZM3.5 13C4.32843 13 5 12.3284 5 11.5C5 10.6716 4.32843 10 3.5 10C2.67157 10 2 10.6716 2 11.5C2 12.3284 2.67157 13 3.5 13ZM5.50018 13H8.99982C8.68597 12.5822 8.5 12.0628 8.5 11.5C8.5 10.9372 8.68597 10.4178 8.99982 10H5.50018C5.81403 10.4178 6 10.9372 6 11.5C6 12.0628 5.81403 12.5822 5.50018 13ZM16.4998 13H13.0002C13.314 12.5822 13.5 12.0628 13.5 11.5C13.5 10.9372 13.314 10.4178 13.0002 10H16.4998C16.186 10.4178 16 10.9372 16 11.5C16 12.0628 16.186 12.5822 16.4998 13ZM12.5 11.5C12.5 12.3284 11.8284 13 11 13C10.1716 13 9.5 12.3284 9.5 11.5C9.5 10.6716 10.1716 10 11 10C11.8284 10 12.5 10.6716 12.5 11.5ZM20 11.5C20 12.3284 19.3284 13 18.5 13C17.6716 13 17 12.3284 17 11.5C17 10.6716 17.6716 10 18.5 10C19.3284 10 20 10.6716 20 11.5Z" fill="white"/>
</svg>
