<svg width="24" height="24" viewBox="0 0 24 24" fill="none" xmlns="http://www.w3.org/2000/svg">
<path fill-rule="evenodd" clip-rule="evenodd" d="M17.5 6.95852C18.9189 6.72048 20 5.4865 20 4C20 2.34315 18.6569 1 17 1C15.3431 1 14 2.34315 14 4C14 5.4865 15.0811 6.72048 16.5 6.95852V9.6011L6.5 13.8791V8.95852C7.91886 8.72048 9 7.4865 9 6C9 4.34315 7.65685 3 6 3C4.34315 3 3 4.34315 3 6C3 7.4865 4.08114 8.72048 5.5 8.95852V16.0415C4.08114 16.2795 3 17.5135 3 19C3 20.6569 4.34315 22 6 22C7.65685 22 9 20.6569 9 19C9 17.5135 7.91886 16.2795 6.5 16.0415V14.9668L17.5 10.261V6.95852ZM19 4C19 5.10457 18.1046 6 17 6C15.8954 6 15 5.10457 15 4C15 2.89543 15.8954 2 17 2C18.1046 2 19 2.89543 19 4ZM8 6C8 7.10457 7.10457 8 6 8C4.89543 8 4 7.10457 4 6C4 4.89543 4.89543 4 6 4C7.10457 4 8 4.89543 8 6ZM6 21C7.10457 21 8 20.1046 8 19C8 17.8954 7.10457 17 6 17C4.89543 17 4 17.8954 4 19C4 20.1046 4.89543 21 6 21Z" fill="white"/>
</svg>
