<svg width="24" height="25" viewBox="0 0 24 25" fill="none" xmlns="http://www.w3.org/2000/svg">
<path d="M9.56184 6.80157H14.4377V5.80157H9.56184V6.80157Z" fill="white"/>
<path d="M9.56184 8.42687H14.4377V7.42687H9.56184V8.42687Z" fill="white"/>
<path fill-rule="evenodd" clip-rule="evenodd" d="M6.21768 3.36365V5.98894H7.43665V11.783L4.68606 14.5336L3.87342 13.721L1.54102 16.0534L7.12401 21.6364L9.45641 19.3039L8.64376 18.4913L11.9999 15.1352L15.356 18.4913L14.5434 19.3039L16.8758 21.6364L22.4588 16.0534L20.1264 13.721L19.3137 14.5336L16.5631 11.783V5.98894H17.7821V3.36365H6.21768ZM7.21768 4.98894V4.36365H16.7821V4.98894H15.5631V12.1972L19.3137 15.9478L20.1264 15.1352L21.0446 16.0534L16.8758 20.2221L15.9576 19.3039L16.7702 18.4913L11.9999 13.721L7.22955 18.4913L8.0422 19.3039L7.12401 20.2221L2.95523 16.0534L3.87342 15.1352L4.68606 15.9478L8.43665 12.1972V4.98894H7.21768Z" fill="white"/>
</svg>
