<svg width="24" height="25" viewBox="0 0 24 25" fill="none" xmlns="http://www.w3.org/2000/svg">
<path fill-rule="evenodd" clip-rule="evenodd" d="M16.1697 19.1406L16.7416 18.692C18.7272 17.1343 20 14.7161 20 12C20 9.40084 18.8346 7.07489 16.9943 5.51418L16.4619 5.06267L16.7022 4.40726L17.0349 3.5H11.5H5.9651L6.29777 4.40726L6.53808 5.06267L6.00568 5.51418C4.16538 7.07489 3 9.40084 3 12C3 14.716 4.27271 17.1342 6.25828 18.6919L6.83013 19.1405L6.57992 19.8229L5.96499 21.5L17.0348 21.5L16.4199 19.8231L16.1697 19.1406ZM18.0999 21.5L18.4666 22.5H17.4014L5.59832 22.5H4.53322L4.89989 21.5L5.64104 19.4787C3.42424 17.7395 2 15.0361 2 12C2 9.09476 3.30412 6.49411 5.35889 4.75152L4.9 3.5L4.53333 2.5H5.59844H11.5H17.4016H18.4667L18.1 3.5L17.6411 4.75152C19.6959 6.49411 21 9.09476 21 12C21 15.0362 19.5757 17.7397 17.3588 19.4788L18.0999 21.5Z" fill="white"/>
<path fill-rule="evenodd" clip-rule="evenodd" d="M11.4999 5.20374C11.776 5.20374 11.9999 5.42759 11.9999 5.70374V9.59847C11.8385 9.56507 11.6714 9.54752 11.5001 9.54752C11.3287 9.54752 11.1614 9.56511 10.9999 9.59859V5.70374C10.9999 5.42759 11.2237 5.20374 11.4999 5.20374ZM10.1555 9.94864L7.40152 7.19461C7.20625 6.99934 6.88967 6.99934 6.69441 7.1946C6.49915 7.38987 6.49915 7.70645 6.69441 7.90171L9.44851 10.6558C9.63322 10.3745 9.87424 10.1334 10.1555 9.94864ZM9.09864 11.5001H5.20361C4.92747 11.5001 4.70361 11.7239 4.70361 12.0001C4.70361 12.2762 4.92747 12.5001 5.20361 12.5001H9.09866C9.06521 12.3386 9.04764 12.1714 9.04764 12C9.04764 11.8287 9.06521 11.6615 9.09864 11.5001ZM9.44848 13.3442L6.69441 16.0983C6.49915 16.2935 6.49915 16.6101 6.69441 16.8054C6.88967 17.0006 7.20625 17.0006 7.40152 16.8054L10.1555 14.0514C9.8742 13.8666 9.63318 13.6256 9.44848 13.3442ZM10.9999 14.4015V18.2964C10.9999 18.5725 11.2237 18.7964 11.4999 18.7964C11.776 18.7964 11.9999 18.5725 11.9999 18.2964V14.4016C11.8385 14.435 11.6714 14.4525 11.5001 14.4525C11.3287 14.4525 11.1614 14.4349 10.9999 14.4015ZM12.8444 14.0517L15.5981 16.8055C15.7934 17.0007 16.11 17.0007 16.3053 16.8055C16.5005 16.6102 16.5005 16.2936 16.3053 16.0983L13.5515 13.3446C13.3668 13.6259 13.1257 13.867 12.8444 14.0517ZM13.9016 12.5001H17.7962C18.0724 12.5001 18.2962 12.2762 18.2962 12.0001C18.2962 11.7239 18.0724 11.5001 17.7962 11.5001H13.9017C13.9351 11.6615 13.9527 11.8287 13.9527 12C13.9527 12.1714 13.9351 12.3386 13.9016 12.5001ZM13.5515 10.6554L16.3053 7.90164C16.5005 7.70638 16.5005 7.38979 16.3053 7.19453C16.11 6.99927 15.7934 6.99927 15.5981 7.19453L12.8443 9.94836C13.1257 10.1331 13.3667 10.3741 13.5515 10.6554Z" fill="white"/>
<path d="M12.8249 12C12.8249 12.7316 12.2318 13.3248 11.5001 13.3248C10.7684 13.3248 10.1753 12.7316 10.1753 12C10.1753 11.2683 10.7684 10.6752 11.5001 10.6752C12.2318 10.6752 12.8249 11.2683 12.8249 12Z" fill="white"/>
</svg>
