<svg width="24" height="25" viewBox="0 0 24 25" fill="none" xmlns="http://www.w3.org/2000/svg">
<path fill-rule="evenodd" clip-rule="evenodd" d="M2 10.5C2 11.7097 2.85925 12.7188 4.00073 12.9501L3.98963 15.5179H3.37128C3.09514 15.5179 2.87128 15.7418 2.87128 16.0179C2.87128 16.2941 3.09514 16.5179 3.37128 16.5179H5.59351C5.86965 16.5179 6.09351 16.2941 6.09351 16.0179C6.09351 15.7418 5.86965 15.5179 5.59351 15.5179H4.98964L5.00053 13H11.5181L11.5072 15.5179H10.8889C10.6127 15.5179 10.3889 15.7418 10.3889 16.0179C10.3889 16.2941 10.6127 16.5179 10.8889 16.5179H13.1111C13.3872 16.5179 13.6111 16.2941 13.6111 16.0179C13.6111 15.7418 13.3872 15.5179 13.1111 15.5179H12.5072L12.5181 13H19.0354L19.0245 15.5179H18.4062C18.13 15.5179 17.9062 15.7418 17.9062 16.0179C17.9062 16.2941 18.13 16.5179 18.4062 16.5179H20.6284C20.9045 16.5179 21.1284 16.2941 21.1284 16.0179C21.1284 15.7418 20.9045 15.5179 20.6284 15.5179H20.0245L20.0357 12.9425C21.159 12.6973 22 11.6968 22 10.5C22 9.11929 20.8807 8 19.5 8H4.5C3.11929 8 2 9.11929 2 10.5ZM6 10.5C6 11.3284 5.32843 12 4.5 12C3.67157 12 3 11.3284 3 10.5C3 9.67157 3.67157 9 4.5 9C5.32843 9 6 9.67157 6 10.5ZM9.99982 12H6.50018C6.81403 11.5822 7 11.0628 7 10.5C7 9.9372 6.81403 9.41783 6.50018 9H9.99982C9.68597 9.41783 9.5 9.9372 9.5 10.5C9.5 11.0628 9.68597 11.5822 9.99982 12ZM14.0002 12H17.4998C17.186 11.5822 17 11.0628 17 10.5C17 9.9372 17.186 9.41783 17.4998 9H14.0002C14.314 9.41783 14.5 9.9372 14.5 10.5C14.5 11.0628 14.314 11.5822 14.0002 12ZM12 12C12.8284 12 13.5 11.3284 13.5 10.5C13.5 9.67157 12.8284 9 12 9C11.1716 9 10.5 9.67157 10.5 10.5C10.5 11.3284 11.1716 12 12 12ZM19.5 12C20.3284 12 21 11.3284 21 10.5C21 9.67157 20.3284 9 19.5 9C18.6716 9 18 9.67157 18 10.5C18 11.3284 18.6716 12 19.5 12Z" fill="white"/>
</svg>
