<svg width="24" height="24" viewBox="0 0 24 24" fill="none" xmlns="http://www.w3.org/2000/svg">
<path d="M21.0916 3.56312V2.5752H21.55V10.5028H21.0916V9.51483V9.01483H20.5916H18.6353H17.9329L18.1628 9.6785C18.4672 10.5573 18.6332 11.5036 18.6332 12.4907C18.6332 17.1546 14.9299 20.9182 10.3827 20.9182C5.83555 20.9182 2.13232 17.1546 2.13232 12.4907C2.13232 7.82678 5.83555 4.06312 10.3827 4.06312H20.5916H21.0916V3.56312Z" stroke="white"/>
<path fill-rule="evenodd" clip-rule="evenodd" d="M10.4469 6.42792C10.7231 6.42792 10.9469 6.65178 10.9469 6.92792V9.96885C10.7859 9.93404 10.6187 9.9157 10.4472 9.9157C10.2756 9.9157 10.1082 9.93408 9.94694 9.96898V6.92792C9.94694 6.65178 10.1708 6.42792 10.4469 6.42792ZM9.17394 10.2895L7.02363 8.13916C6.82836 7.94389 6.51178 7.94389 6.31652 8.13915C6.12126 8.33442 6.12126 8.651 6.31652 8.84626L8.4669 10.9966C8.6493 10.7135 8.89079 10.4719 9.17394 10.2895ZM8.14657 11.7696H5.10547C4.82933 11.7696 4.60547 11.9934 4.60547 12.2696C4.60547 12.5457 4.82933 12.7696 5.10547 12.7696H8.14656C8.1117 12.6084 8.09335 12.4412 8.09335 12.2696C8.09335 12.098 8.11171 11.9307 8.14657 11.7696ZM8.46686 13.5425L6.31652 15.6928C6.12126 15.8881 6.12126 16.2046 6.31652 16.3999C6.51178 16.5952 6.82836 16.5952 7.02363 16.3999L9.17388 14.2497C8.89074 14.0672 8.64925 13.8257 8.46686 13.5425ZM9.94694 14.5702V17.6112C9.94694 17.8874 10.1708 18.1112 10.4469 18.1112C10.7231 18.1112 10.9469 17.8874 10.9469 17.6112V14.5703C10.7859 14.6051 10.6187 14.6235 10.4472 14.6235C10.2756 14.6235 10.1082 14.6051 9.94694 14.5702ZM11.7202 14.2499L13.8703 16.4C14.0655 16.5953 14.3821 16.5953 14.5774 16.4C14.7726 16.2047 14.7726 15.8882 14.5774 15.6929L12.4273 13.5429C12.2449 13.826 12.0034 14.0675 11.7202 14.2499ZM12.7479 12.7696H15.7888C16.0649 12.7696 16.2888 12.5457 16.2888 12.2696C16.2888 11.9934 16.0649 11.7696 15.7888 11.7696H12.7479C12.7828 11.9307 12.8011 12.098 12.8011 12.2696C12.8011 12.4412 12.7828 12.6084 12.7479 12.7696ZM12.4273 10.9962L14.5774 8.84616C14.7726 8.6509 14.7726 8.33432 14.5774 8.13906C14.3821 7.94379 14.0655 7.94379 13.8703 8.13906L11.7201 10.2892C12.0033 10.4716 12.2448 10.7131 12.4273 10.9962Z" fill="white"/>
<circle cx="10.4191" cy="12.2418" r="1.32363" fill="white"/>
</svg>
