<svg width="24" height="24" viewBox="0 0 24 24" fill="none" xmlns="http://www.w3.org/2000/svg">
<path d="M2.43848 1.44507H2.93848C4.31919 1.44507 5.43848 2.56436 5.43848 3.94507V7.44507H2.43848V1.44507Z" stroke="white"/>
<path d="M2.43848 16.4451H5.43848V19.9451C5.43848 21.3258 4.31919 22.4451 2.93848 22.4451H2.43848V16.4451Z" stroke="white"/>
<path d="M4.43848 9.49508C5.5796 9.72671 6.43848 10.7356 6.43848 11.9451C6.43848 13.1545 5.5796 14.1634 4.43848 14.3951V9.49508Z" stroke="white"/>
<mask id="path-4-inside-1" fill="white">
<path d="M10.9661 15.8948C11.6509 14.6765 12.0071 13.301 11.9999 11.9034C11.9927 10.5059 11.6222 9.13416 10.9249 7.92295L10.0547 8.42397C10.6651 9.48431 10.9894 10.6851 10.9957 11.9086C11.0021 13.1321 10.6902 14.3362 10.0907 15.4028L10.9661 15.8948Z"/>
</mask>
<path d="M10.9661 15.8948C11.6509 14.6765 12.0071 13.301 11.9999 11.9034C11.9927 10.5059 11.6222 9.13416 10.9249 7.92295L10.0547 8.42397C10.6651 9.48431 10.9894 10.6851 10.9957 11.9086C11.0021 13.1321 10.6902 14.3362 10.0907 15.4028L10.9661 15.8948Z" stroke="white" stroke-width="2" mask="url(#path-4-inside-1)"/>
<mask id="path-5-inside-2" fill="white">
<path d="M15.1866 18.3725C16.3121 16.4071 16.9047 14.1817 16.9055 11.9168C16.9064 9.65192 16.3155 7.42612 15.1914 5.45987L14.403 5.9106C15.4485 7.73949 15.9982 9.80981 15.9974 11.9165C15.9966 14.0231 15.4454 16.0931 14.3985 17.9212L15.1866 18.3725Z"/>
</mask>
<path d="M15.1866 18.3725C16.3121 16.4071 16.9047 14.1817 16.9055 11.9168C16.9064 9.65192 16.3155 7.42612 15.1914 5.45987L14.403 5.9106C15.4485 7.73949 15.9982 9.80981 15.9974 11.9165C15.9966 14.0231 15.4454 16.0931 14.3985 17.9212L15.1866 18.3725Z" stroke="white" stroke-width="2" mask="url(#path-5-inside-2)"/>
<mask id="path-6-inside-3" fill="white">
<path d="M19.5052 20.8598C21.0584 18.1478 21.876 15.077 21.8772 11.9517C21.8783 8.82641 21.063 5.75504 19.5118 3.04184L18.7301 3.48872C20.2034 6.06574 20.9779 8.98295 20.9768 11.9514C20.9757 14.9198 20.1991 17.8364 18.7239 20.4124L19.5052 20.8598Z"/>
</mask>
<path d="M19.5052 20.8598C21.0584 18.1478 21.876 15.077 21.8772 11.9517C21.8783 8.82641 21.063 5.75504 19.5118 3.04184L18.7301 3.48872C20.2034 6.06574 20.9779 8.98295 20.9768 11.9514C20.9757 14.9198 20.1991 17.8364 18.7239 20.4124L19.5052 20.8598Z" stroke="white" stroke-width="2" mask="url(#path-6-inside-3)"/>
</svg>
