<svg width="24" height="25" viewBox="0 0 24 25" fill="none" xmlns="http://www.w3.org/2000/svg">
<path d="M12 3V22H13V3H12Z" fill="white"/>
<path d="M19.0313 18.9995V19.9026C19.5662 19.9026 20.0381 19.7356 20.447 19.4014C20.856 19.0673 21.0605 18.6817 21.0605 18.2447H19.9698C19.8631 18.669 19.4853 18.9855 19.0313 18.9995Z" fill="white"/>
<path d="M17.0493 19V19.9026H15.0202V19H17.0493Z" fill="white"/>
<path d="M10 18.9995V19.9022L4.96863 19.9026C4.43381 19.9026 3.96191 19.7356 3.55293 19.4014C3.14394 19.0673 2.93945 18.6817 2.93945 18.2447V6.75523C2.93945 6.31827 3.14394 5.93271 3.55293 5.59857C3.96191 5.26442 4.43381 5.09734 4.96863 5.09734L10 5.09687V5.99952L5 5.99999C4.44772 5.99999 4 6.44771 4 6.99999V18C4 18.5523 4.44772 19 5 19L10 18.9995Z" fill="white"/>
<path d="M17.0493 5.99999H15.0202V5.09734H17.0493V5.99999Z" fill="white"/>
<path d="M19.9698 6.75523C19.8631 6.33099 19.4853 6.01445 19.0313 6.00047V5.09734C19.5662 5.09734 20.0381 5.26442 20.447 5.59857C20.856 5.93271 21.0605 6.31827 21.0605 6.75523H19.9698Z" fill="white"/>
<path d="M20 10.0324V8.37456H21.0605V10.0324H20Z" fill="white"/>
<path d="M20 13.3097V11.6903H21.0605V13.3097H20Z" fill="white"/>
<path d="M20 16.6254V14.9675H21.0605V16.6254H20Z" fill="white"/>
</svg>
