<svg width="24" height="25" viewBox="0 0 24 25" fill="none" xmlns="http://www.w3.org/2000/svg">
<path d="M13 18.5C13 19.0523 12.5523 19.5 12 19.5C11.4477 19.5 11 19.0523 11 18.5C11 17.9477 11.4477 17.5 12 17.5C12.5523 17.5 13 17.9477 13 18.5Z" fill="white"/>
<path d="M12 7.5C12.5523 7.5 13 7.05228 13 6.5C13 5.94772 12.5523 5.5 12 5.5C11.4477 5.5 11 5.94772 11 6.5C11 7.05228 11.4477 7.5 12 7.5Z" fill="white"/>
<path fill-rule="evenodd" clip-rule="evenodd" d="M12 3.5C10.3431 3.5 8.99998 4.84315 8.99998 6.5V18.5C8.99998 20.1569 10.3431 21.5 12 21.5C13.6568 21.5 15 20.1569 15 18.5V6.5C15 4.84315 13.6568 3.5 12 3.5ZM14 18.5V6.5C14 5.39543 13.1045 4.5 12 4.5C10.8954 4.5 9.99998 5.39543 9.99998 6.5V18.5C9.99998 19.6046 10.8954 20.5 12 20.5C13.1045 20.5 14 19.6046 14 18.5Z" fill="white"/>
<path fill-rule="evenodd" clip-rule="evenodd" d="M22 10.5H16V14.5H18C19.8638 14.5 21.4299 13.2252 21.8739 11.5C21.9562 11.1805 21.9999 10.8452 22 10.5ZM20.8292 11.5H17L16.9999 13.5H18C19.3062 13.5 20.4174 12.6652 20.8292 11.5Z" fill="white"/>
<path fill-rule="evenodd" clip-rule="evenodd" d="M22 4.5C21.9999 4.84516 21.9562 5.1805 21.8739 5.5C21.4299 7.22523 19.8638 8.5 18 8.5H16V4.5H22ZM20.8292 5.5C20.4174 6.66519 19.3062 7.5 18 7.5H16.9999L17 5.5L20.8292 5.5Z" fill="white"/>
<path fill-rule="evenodd" clip-rule="evenodd" d="M2 8.5L8 8.5V4.5L6 4.5C4.13616 4.5 2.57006 5.77477 2.12602 7.5C2.04378 7.8195 2.00003 8.15484 2 8.5ZM3.17071 7.5L7 7.5L7.00001 5.5L6 5.5C4.69378 5.5 3.58254 6.33481 3.17071 7.5Z" fill="white"/>
<path fill-rule="evenodd" clip-rule="evenodd" d="M2 14.5C2.00003 14.1548 2.04378 13.8195 2.12602 13.5C2.57006 11.7748 4.13616 10.5 6 10.5H8V14.5L2 14.5ZM3.17071 13.5C3.58254 12.3348 4.69378 11.5 6 11.5H7.00001L7 13.5H3.17071Z" fill="white"/>
<path fill-rule="evenodd" clip-rule="evenodd" d="M2 20.5H8V16.5L6 16.5C4.13616 16.5 2.57006 17.7748 2.12602 19.5C2.04378 19.8195 2.00003 20.1548 2 20.5ZM3.17071 19.5H7L7.00001 17.5H6C4.69378 17.5 3.58254 18.3348 3.17071 19.5Z" fill="white"/>
<path fill-rule="evenodd" clip-rule="evenodd" d="M22 16.5C21.9999 16.8452 21.9562 17.1805 21.8739 17.5C21.4299 19.2252 19.8638 20.5 18 20.5H16V16.5H22ZM20.8292 17.5C20.4174 18.6652 19.3062 19.5 18 19.5H16.9999L17 17.5H20.8292Z" fill="white"/>
</svg>
