<svg width="127" height="54" viewBox="0 0 127 54" fill="none" xmlns="http://www.w3.org/2000/svg">
<g clip-path="url(#clip0)">
<path d="M126.946 44.4596H125.385C118.386 44.4596 111.436 44.5235 104.464 44.4277C101.723 44.4594 98.9945 44.0457 96.3886 43.2032C88.1947 40.3283 82.8541 34.7329 81.2821 26.3052C79.9308 19.0914 81.8205 12.5058 87.2041 7.08073C91.8556 2.38508 97.5245 0.159703 104.05 0.0745208C111.587 -0.0372804 119.124 0.0478918 126.828 0.0478918C127.178 1.43742 126.935 2.8589 126.978 4.25907C127.021 5.65925 126.978 7.0967 126.978 8.65127H124.68C117.848 8.65127 111.016 8.58206 104.189 8.65127C97.6645 8.74177 92.5178 12.5164 90.5689 18.543C89.2014 22.7702 90.192 26.5661 92.6147 30.0532C95.3065 33.9077 99.2042 35.7231 103.866 35.787C110.763 35.8829 117.67 35.8243 124.572 35.8296H126.968C126.973 38.6832 126.978 41.441 126.946 44.4596Z" fill="white"/>
<path d="M71.8661 36.032V44.449C68.0275 44.449 64.259 44.6406 60.5174 44.3851C57.4971 44.1828 54.4554 43.7036 51.6613 42.3088C47.6828 40.3283 44.3126 37.7143 41.9169 33.9184C40.4892 31.6541 39.4895 29.152 38.9667 26.5342C38.6544 25.0115 38.8159 23.3931 38.7675 21.8226C38.5844 16.5306 40.5764 12.0905 43.925 8.03905C46.8537 4.48803 50.6976 2.37445 54.9184 1.02219C57.1804 0.310926 59.5438 -0.034257 61.9171 1.73994e-06C69.1796 0.0798598 76.4529 0.0266211 83.7101 1.73994e-06H84.4423C84.8729 1.03816 84.5822 2.12956 84.6361 3.15707C84.6899 4.18458 84.6361 5.16415 84.6361 6.20231C84.0385 7.07542 83.021 7.63444 82.6118 8.63C75.6131 8.63 68.7328 8.66195 61.831 8.63C54.8323 8.58741 49.2494 13.7729 47.9143 19.693C47.026 23.6433 48.1996 26.8962 50.2562 30.0692C52.3127 33.2422 55.6021 34.8607 59.2199 35.7498C59.7215 35.8318 60.231 35.8551 60.7381 35.819C63.8606 35.819 66.9831 35.819 70.1056 35.8509C70.6763 35.8669 71.2685 35.6912 71.8661 36.032Z" fill="#FE5E38"/>
<path d="M3.78478 17.6805C4.72153 17.9467 4.97994 18.9316 6.01899 19.0488C5.97053 16.9937 6.55735 15.1091 6.96112 13.1925C7.46022 10.9873 8.39116 8.90015 9.70139 7.04878C11.0904 5.07362 12.5224 3.12509 13.9329 1.16058C14.1429 0.867765 14.3475 0.569625 14.622 0.175659C17.1087 3.11265 19.3605 6.23654 21.357 9.51904C23.0369 12.1307 24.5596 14.8382 25.9169 17.6273C26.9734 19.9972 27.906 22.4192 28.711 24.8837C28.8708 25.3213 28.8951 25.796 28.781 26.2473C28.6669 26.6986 28.4195 27.1061 28.0704 27.4179C26.8537 28.6903 25.287 29.3664 23.855 30.2768C23.7419 30.346 23.6773 30.4844 23.505 30.6974C24.8186 32.1828 26.8483 32.6779 28.3019 33.9503C27.3113 40.1313 18.5198 46.7276 10.9235 43.7302C10.9235 43.2404 11.2788 43.2511 11.6234 43.1233C13.1096 42.5501 14.3394 41.4699 15.0904 40.078C15.435 39.4711 15.3865 38.9228 14.762 38.6246C13.4969 38.0337 12.2317 37.4587 10.7243 37.8261C8.09707 38.4596 8.0863 38.417 5.49139 40.8713C5.41538 40.8317 5.34881 40.7764 5.29616 40.7092C5.2435 40.6421 5.20598 40.5645 5.1861 40.4818C5.16621 40.3992 5.16443 40.3132 5.18087 40.2298C5.19732 40.1464 5.2316 40.0674 5.28143 39.9982C6.0846 38.6386 6.32204 37.0236 5.94361 35.4942C5.46985 33.8332 4.60847 32.6779 2.6596 31.0807C1.75515 31.299 1.55057 32.252 0.807625 32.9334C0.126282 31.5267 -0.126255 29.9543 0.080834 28.4081C0.648767 24.8771 1.72758 21.4453 3.2841 18.2182C3.42887 18.02 3.59695 17.8395 3.78478 17.6805ZM13.9599 27.2156C13.9371 26.7915 13.9955 26.3671 14.1321 25.9645C15.0743 23.1588 13.9006 18.9529 10.8212 18.1703C7.19262 21.2635 8.60852 27.1091 12.3501 28.5306C13.0554 28.2484 13.2438 27.3966 13.9652 27.189C14.369 28.0674 13.1092 28.7009 13.5991 29.5953C16.9532 32.0922 22.5521 30.3247 23.8711 26.2147C23.5912 25.2351 22.6652 25.4374 22.0515 25.2191C19.435 24.2821 17.0285 24.6868 15.0527 26.7311C14.762 27.0346 14.4767 27.3913 13.9599 27.2156ZM21.6046 15.5936C16.5278 15.8864 14.9074 20.023 15.3381 23.7497C15.3462 23.8962 15.3891 24.0386 15.4633 24.1655C15.5376 24.2924 15.6411 24.4002 15.7655 24.4801C15.8898 24.56 16.0314 24.6098 16.1789 24.6253C16.3263 24.6409 16.4754 24.6218 16.614 24.5696C18.6275 24.0372 20.3825 23.0151 21.3462 21.173C22.3099 19.3309 22.8159 17.4995 21.6046 15.5936ZM19.7042 32.63C16.0541 29.968 10.9019 31.102 9.21148 35.5741C11.6234 38.3531 17.5346 37.6717 19.7042 32.6459V32.63ZM6.69194 24.8624C2.92339 27.7373 4.18855 33.0825 8.20474 35.0896C10.2721 33.4924 10.3582 31.2191 10.0352 28.9778C9.94 28.0456 9.57352 27.1607 8.98014 26.4303C8.38676 25.6998 7.59193 25.1552 6.69194 24.8624Z" fill="#FE5E38"/>
<path d="M75.4679 44.3532V26.6832H60.7544V18.4153C62.1864 18.0533 74.5419 17.9521 78.0466 18.2982C76.9968 25.9805 78.7788 32.7791 84.6039 38.1349V44.3532H75.4679Z" fill="#FE5E38"/>
<path d="M41.9762 44.3851H33.104V42.4419C33.104 33.3913 33.1417 24.3407 33.0663 15.3168C33.0174 13.9603 33.4754 12.6336 34.353 11.59C36.8187 8.51817 39.1983 5.39838 41.8901 2.03369C42.0061 3.42369 42.0331 4.81956 41.9708 6.21293C41.9708 7.08605 41.1902 7.57051 40.6949 8.13484C38.5477 10.6294 37.0129 13.5812 36.2103 16.7595C34.4176 23.4516 35.6397 29.6486 39.7905 35.0896C41.4056 37.2191 42.3262 39.2688 42.0031 41.8882C41.9441 42.7192 41.9351 43.553 41.9762 44.3851Z" fill="white"/>
<path d="M100.841 50.8589C100.216 51.3274 100.152 52.0781 99.9472 52.7276C99.8965 52.9741 99.7877 53.2053 99.6296 53.4024C99.4715 53.5995 99.2686 53.7568 99.0373 53.8616C98.036 53.1589 98.2729 51.78 97.4653 50.9335C96.6578 51.7693 97.9122 53.3079 96.1948 53.9361C95.0265 52.1154 95.9956 50.0923 95.5864 48.2929C96.2486 47.7338 96.8839 47.9628 97.4976 48C98.2352 49.0648 98.3159 50.3691 99.1127 51.7267C99.6511 50.3319 100.087 49.2511 100.545 48.1012C101.083 47.7498 101.697 47.9148 102.418 48V53.7924L101.46 53.8456C100.922 52.898 101.385 51.8492 101.11 50.9015C101.173 50.784 101.198 50.6504 101.183 50.5184C101.167 50.3863 101.112 50.262 101.024 50.1615C100.765 50.3425 100.787 50.5981 100.841 50.8589Z" fill="white"/>
<path d="M39.4782 0.127808C37.5993 3.0932 35.3328 5.52087 33.2117 8.41706V0.127808H39.4782Z" fill="#FE5E38"/>
<path d="M7.90321 53.8775C6.45501 53.6379 6.45501 53.6379 4.47922 50.9388C4.06468 51.6202 4.33386 52.3283 4.26387 52.9991C4.21542 53.4463 4.00007 53.8562 3.48863 53.8509C3.37935 53.8517 3.27105 53.8306 3.17027 53.7888C3.0695 53.747 2.97835 53.6854 2.90235 53.6077C2.82635 53.5301 2.76707 53.438 2.72811 53.337C2.68916 53.2361 2.67132 53.1283 2.6757 53.0204C2.6757 51.3913 2.6757 49.7622 2.6757 48.1118C3.54785 47.8083 4.05391 47.9095 4.56535 48.6441C5.0768 49.3788 5.39443 50.4756 6.5573 50.9334V48.2715C6.95569 47.7923 7.31101 47.984 7.72555 47.968C8.08087 48.9529 7.85476 49.9538 7.89782 50.9281C7.94089 51.9024 7.90321 52.7648 7.90321 53.8775Z" fill="white"/>
<path d="M91.6565 47.8989C93.6161 47.8989 94.6929 48.9956 94.6821 50.9441C94.7064 51.3539 94.6409 51.7641 94.4899 52.1465C94.339 52.5289 94.1063 52.8746 93.8077 53.1597C93.5091 53.4449 93.1516 53.6629 92.7599 53.7987C92.3682 53.9346 91.9514 53.9851 91.5381 53.9468C89.7022 53.8297 88.744 53.0311 88.6417 50.7152C88.5555 48.9583 89.7938 47.8989 91.6565 47.8989ZM93.0401 50.9015C93.0401 49.6398 92.6632 49.1287 91.6996 49.0967C90.7359 49.0648 90.2944 49.5386 90.2621 50.7897C90.2298 52.1952 90.6336 52.7329 91.6996 52.7063C92.6632 52.6744 93.0347 52.1952 93.0401 50.9015Z" fill="white"/>
<path d="M67.5593 50.646C67.6185 52.4827 66.418 53.8722 64.7114 53.9521C64.2995 53.9978 63.8825 53.9548 63.4891 53.826C63.0956 53.6972 62.735 53.4856 62.4322 53.2058C62.1293 52.9261 61.8913 52.5847 61.7346 52.2053C61.5779 51.8259 61.5061 51.4174 61.5242 51.008C61.4704 49.1446 62.5041 47.9627 64.243 47.8988C66.2564 47.8296 67.5055 48.8625 67.5593 50.646ZM63.4462 49.331C63.1315 50.0953 63.0565 50.9356 63.2309 51.7427C63.2686 52.029 63.4169 52.2897 63.6447 52.4704C63.8725 52.651 64.1621 52.7374 64.4529 52.7116C65.0936 52.7116 65.6589 52.5253 65.8042 51.9077C65.998 51.0932 66.1865 50.1828 65.5458 49.48C64.9913 48.8625 64.2537 49.0381 63.4462 49.331Z" fill="white"/>
<path d="M54.4339 50.5128V53.7923C53.7448 53.9308 53.1634 53.4995 52.4151 53.7923C51.8029 54.0406 51.1186 54.0513 50.4988 53.8223C49.8791 53.5933 49.3695 53.1415 49.0719 52.5572C48.5819 51.6628 48.765 49.3256 49.4272 48.6655C50.2078 47.8935 51.2145 47.8403 52.2482 47.8988C52.683 47.919 53.1018 48.0671 53.4509 48.3242C53.8 48.5812 54.0636 48.9355 54.2078 49.3416C53.1742 49.6184 53.1742 49.6184 51.9198 48.8092C51.0315 49.086 50.1647 49.3682 50.1701 50.5874C50.1701 51.4019 50.1701 52.275 51.0046 52.6317C51.1821 52.7318 51.3779 52.796 51.5807 52.8207C51.7835 52.8454 51.9893 52.8301 52.1861 52.7756C52.3828 52.7212 52.5667 52.6286 52.7271 52.5034C52.8875 52.3782 53.0211 52.2228 53.1203 52.0461C52.9804 51.4552 51.4083 51.9769 52.0975 50.7311C52.7543 50.4277 53.4864 50.6992 54.4339 50.5128Z" fill="white"/>
<path d="M18.9664 48.0266C19.2572 48.3354 19.1549 48.6122 19.0849 48.9796C18.2127 49.2511 17.2706 49.0275 16.3554 49.1286C15.817 49.1872 15.6124 49.4747 15.9678 50.1562H18.4227C18.5666 50.2891 18.6694 50.4598 18.7189 50.6484C18.7685 50.8369 18.7628 51.0355 18.7026 51.2209C17.852 51.5883 16.8884 51.2209 16.0108 51.4392C15.6232 51.6894 15.7739 52.0621 15.7901 52.504C16.8668 52.9458 18.0458 52.4667 19.0526 52.7755C19.3487 53.1056 19.2195 53.3824 19.1656 53.7604C17.7067 54.0585 16.2154 53.8456 14.6111 53.9041C14.2665 51.9343 14.5249 50.039 14.4334 48.0479L18.9664 48.0266Z" fill="white"/>
<path d="M55.8067 47.9361C56.8834 47.9361 57.7825 47.8882 58.6977 47.9361C60.3989 48.0479 61.0073 48.921 60.3774 50.5022C60.2731 50.7184 60.2216 50.9559 60.2273 51.1954C60.2329 51.435 60.2954 51.6698 60.4097 51.8811C60.5308 52.213 60.5998 52.5613 60.6143 52.9139C60.6538 53.052 60.6582 53.1976 60.6272 53.3378C60.5962 53.4781 60.5308 53.6086 60.4366 53.7178C60.1836 53.9148 59.8982 53.8243 59.6291 53.7923C58.9884 51.8012 58.9884 51.8012 57.3733 51.7427C56.7004 52.275 57.6587 53.787 55.8767 53.8083C55.7152 51.9183 55.8282 50.023 55.8067 47.9361ZM58.8915 49.3842C57.1041 49.102 57.1041 49.102 57.3949 50.449C58.8646 50.4383 58.8646 50.4383 58.8915 49.3842Z" fill="white"/>
<path d="M120.47 53.4889C117.896 54.0852 118.316 51.2689 116.701 50.8589C116.265 51.6575 116.669 52.5466 116.421 53.3132C116.173 53.7498 115.78 53.5528 115.231 53.5901C115.097 51.7693 115.199 49.9485 115.172 48.1278C115.331 48.0285 115.509 47.9648 115.696 47.9414C115.882 47.918 116.071 47.9353 116.25 47.9922C116.429 48.0491 116.593 48.1441 116.73 48.2706C116.868 48.3971 116.975 48.5519 117.046 48.7241C117.609 49.6586 118.285 50.522 119.059 51.2955V48.3301C119.409 47.7977 119.786 47.9681 120.238 47.9468C120.636 49.7675 120.281 51.5936 120.47 53.4889Z" fill="white"/>
<path d="M34.4069 51.0772C33.4486 51.6522 32.4472 51.1251 31.5858 51.4605C31.2251 51.7587 31.3759 52.1047 31.4351 52.488C32.5118 52.9832 33.7285 52.3124 34.7945 52.9033C34.0677 53.9042 34.0677 53.9042 30.2238 53.7445C29.9008 51.8758 30.1215 49.9858 30.0676 48.016H34.4553C34.5038 48.6336 34.6007 49.1393 33.6908 49.118C33.1094 49.118 32.528 49.118 31.9465 49.118C31.6128 49.118 31.4082 49.2991 31.3543 49.7888C32.0273 50.8856 33.8577 49.3789 34.4069 51.0772Z" fill="white"/>
<path d="M72.4046 47.9947H73.5675C73.7764 49.3159 73.8054 50.6588 73.6536 51.9876C73.5728 53.1908 72.3508 54.0053 70.9941 53.9521C69.5136 53.8989 68.6253 53.1695 68.5445 51.8226C68.4745 50.614 68.5445 49.4002 68.5445 48.2982C68.8783 47.8137 69.2498 47.9734 69.6213 47.9574C69.7194 48.136 69.7902 48.328 69.8312 48.5271C69.8312 49.4588 69.8312 50.3904 69.8312 51.3221C69.8743 52.3869 70.1919 52.7117 71.021 52.7649C71.8501 52.8181 72.2808 52.3975 72.3615 51.418C72.4423 50.3479 72.4046 49.2724 72.4046 47.9947Z" fill="white"/>
<path d="M76.4907 51.7852C76.0762 52.5838 76.6899 53.7977 75.0694 53.819C74.9241 51.929 75.0102 50.039 75.0264 48.0851C75.8742 47.885 76.7521 47.8417 77.6159 47.9574C79.1987 48.0532 79.8932 48.7187 79.8447 49.9485C79.7963 51.1783 79.1664 51.6521 77.6913 51.7799C77.3306 51.8119 76.9752 51.7852 76.4907 51.7852ZM76.5499 50.4915C77.0883 50.4915 77.7128 50.8376 78.165 50.1189C78.2146 50.0252 78.2404 49.9211 78.2404 49.8154C78.2404 49.7097 78.2146 49.6056 78.165 49.5119C77.6267 48.9796 77.0506 49.0967 76.4692 49.3309C76.3748 49.5134 76.3325 49.7178 76.3467 49.9223C76.3609 50.1268 76.4312 50.3236 76.5499 50.4915Z" fill="white"/>
<path d="M105.245 51.8438C105.089 53.5847 105.089 53.5847 104.114 53.8509C103.576 52.9352 103.92 51.9184 103.856 50.9547C103.791 49.9911 103.856 49.1127 103.856 48.0905C104.916 47.8502 106.013 47.8158 107.086 47.9893C107.32 47.9938 107.551 48.0466 107.764 48.1444C107.976 48.2421 108.166 48.3827 108.321 48.5571C108.475 48.7314 108.591 48.9358 108.661 49.1571C108.732 49.3783 108.754 49.6116 108.728 49.842C108.754 50.073 108.732 50.3068 108.664 50.5293C108.596 50.7518 108.483 50.9584 108.332 51.1365C108.182 51.3146 107.996 51.4607 107.786 51.5658C107.576 51.6709 107.347 51.7329 107.113 51.748C106.493 51.8171 105.869 51.8491 105.245 51.8438ZM105.245 50.433C107.097 50.5075 107.097 50.5075 107.21 49.3682C106.909 49.2032 106.571 49.1166 106.227 49.1166C105.883 49.1166 105.545 49.2032 105.245 49.3682V50.433Z" fill="white"/>
<path d="M87.7586 51.9503C87.301 53.5901 86.7357 54.0266 85.2283 53.9521C83.8447 53.8829 82.7034 53.0843 82.5365 51.9397C82.453 51.3017 82.453 50.6558 82.5365 50.0178C82.6144 49.5235 82.8384 49.0631 83.1805 48.6946C83.5225 48.3261 83.9671 48.0659 84.4584 47.9468C85.6051 47.8084 86.8057 47.6966 87.5863 48.8518C87.664 48.9294 87.7223 49.0238 87.7567 49.1275C87.7911 49.2313 87.8005 49.3415 87.7843 49.4495C87.7682 49.5575 87.7267 49.6602 87.6634 49.7496C87.6 49.839 87.5165 49.9126 87.4194 49.9645C86.5742 49.9965 86.3858 49.0222 85.5567 48.8093C85.2208 48.8324 84.9007 48.9588 84.6411 49.1707C84.3814 49.3826 84.1952 49.6695 84.1085 49.9911C83.9755 50.3119 83.9162 50.6578 83.9348 51.004C83.9535 51.3502 84.0495 51.6879 84.2162 51.9929C84.7168 52.8554 85.6267 53.095 86.3696 52.3816C86.7411 51.9876 86.9941 51.6629 87.7586 51.9503Z" fill="white"/>
<path d="M114.079 53.8829C113.003 53.7285 112.874 52.5626 111.673 52.5573C110.472 52.5519 110.381 53.7977 109.46 53.8669C109.083 52.7702 109.083 52.7702 111.135 48.0107H112.184C113.444 50.0657 114.246 52.4774 114.079 53.8829ZM111.307 51.6628C111.808 51.7959 112.141 51.8226 112.459 51.5191C112.141 51.0932 112.341 50.3159 111.581 50.1136C111.415 50.332 111.304 50.5863 111.256 50.8556C111.208 51.1249 111.226 51.4015 111.307 51.6628Z" fill="white"/>
<path d="M40.582 51.9077C40.2482 53.4303 39.5537 53.9893 38.1163 53.9521C36.7596 53.9201 35.5645 53.0949 35.3922 51.9556C35.2641 51.2514 35.2641 50.5303 35.3922 49.8261C35.4712 49.3531 35.698 48.9165 36.0408 48.5775C36.3836 48.2385 36.8251 48.0142 37.3034 47.9361C38.4447 47.7498 39.656 47.6806 40.4313 48.8412C40.6897 49.2298 40.7597 49.6397 40.259 49.9379C39.656 49.9805 39.4138 49.4853 39.0531 49.1499C38.9311 49.0168 38.778 48.9152 38.6072 48.854C38.4365 48.7928 38.2532 48.7737 38.0732 48.7986C37.2011 48.9423 36.9481 49.6664 36.7381 50.3265C36.6135 50.7015 36.6054 51.1048 36.7148 51.4843C36.8242 51.8639 37.0461 52.2024 37.3518 52.4561C37.6064 52.6661 37.9274 52.7812 38.259 52.7812C38.5905 52.7812 38.9116 52.6661 39.1661 52.4561C39.5645 52.1952 39.7691 51.6628 40.582 51.9077Z" fill="white"/>
<path d="M29.0769 52.7649C29.1595 52.9007 29.2032 53.0562 29.2032 53.2147C29.2032 53.3733 29.1595 53.5288 29.0769 53.6646C28.9531 53.7232 28.8239 53.8456 28.7162 53.835C27.5857 53.6753 26.2128 54.3301 25.3676 53.5635C24.4255 52.7063 25.1092 51.2742 24.9854 50.1029C24.9504 49.4734 24.9504 48.8425 24.9854 48.213C26.1536 48.0053 26.482 48.1331 26.5197 48.8944C26.5682 50.087 26.5197 51.2848 26.5197 52.4188C27.3919 52.8714 28.2156 52.4934 29.0769 52.7649Z" fill="white"/>
<path d="M123.791 53.9414C123.538 53.654 123.172 53.4091 123.199 53.2387C123.431 51.5244 122.327 50.3052 121.633 48.937C121.509 48.6868 121.272 48.4845 121.336 48.0799C123.21 47.409 122.833 49.512 123.947 50.0603C124.895 49.7782 124.513 47.4676 126.332 48.0053C126.65 48.5856 126.112 48.8039 125.934 49.1393C125.304 50.3212 124.405 51.3966 124.658 52.866C124.744 53.3665 124.367 53.6327 123.791 53.9414Z" fill="white"/>
<path d="M11.8064 53.8935C11.2088 53.835 10.9127 53.9734 10.5627 53.638V49.6983C10.0998 48.8518 9.37835 49.3842 8.90997 49.0329C8.61926 48.74 8.66232 48.4259 8.90997 48.016H13.3246C13.3945 49.0009 13.3945 49.0009 11.7956 49.3363L11.8064 53.8935Z" fill="white"/>
<path d="M44.5336 53.5262L43.3761 53.6061C42.9131 52.2112 43.3761 50.7631 43.1015 49.4428C42.7193 48.7294 41.228 49.693 41.4541 48.1171C42.9454 47.7019 44.5013 48.0852 46.0302 47.8936C46.0948 49.0275 46.0948 49.0275 44.5336 49.3097V53.5262Z" fill="white"/>
<path d="M20.0811 47.9734H21.2601C21.5939 49.4321 21.2601 50.9281 21.4593 52.4082C22.2184 53.0577 23.3059 52.2378 24.1834 53.0577C22.999 54.1224 21.5885 53.3132 20.3503 53.6593C19.8119 52.7595 20.1457 51.8172 20.0919 50.9281C20.038 50.039 20.0811 49.0861 20.0811 47.9734Z" fill="white"/>
<path d="M1.28667 53.8349H0.290697C0.204559 53.7444 0.113037 53.6912 0.113037 53.6379C0.113037 51.8065 0.113037 49.9751 0.113037 48.149C0.39837 47.8083 0.748307 47.9414 1.22745 48.0213C1.37226 49.9559 1.39204 51.8978 1.28667 53.8349Z" fill="white"/>
<path d="M100.841 50.8589C100.787 50.5927 100.766 50.3265 101.029 50.1615C101.117 50.2619 101.173 50.3863 101.188 50.5184C101.203 50.6504 101.178 50.7839 101.115 50.9015H100.976L100.841 50.8589Z" fill="#FE5E38"/>
</g>
<defs>
<clipPath id="clip0">
<rect width="127" height="54" fill="white"/>
</clipPath>
</defs>
</svg>
