<svg width="24" height="24" viewBox="0 0 24 24" fill="none" xmlns="http://www.w3.org/2000/svg">
<rect x="4" y="4" width="16" height="16" rx="3" stroke="#EB5757" stroke-width="2" stroke-linecap="round" stroke-linejoin="round"/>
<path d="M6.9104 13.206H8.2404V17H6.9104V13.206ZM7.5754 12.786C7.33273 12.786 7.13673 12.7183 6.9874 12.583C6.83807 12.4477 6.7634 12.2797 6.7634 12.079C6.7634 11.8783 6.83807 11.7103 6.9874 11.575C7.13673 11.4397 7.33273 11.372 7.5754 11.372C7.81807 11.372 8.01407 11.4373 8.1634 11.568C8.31273 11.694 8.3874 11.8573 8.3874 12.058C8.3874 12.268 8.31273 12.443 8.1634 12.583C8.01407 12.7183 7.81807 12.786 7.5754 12.786ZM11.0437 17.063C10.6237 17.063 10.2481 16.979 9.91673 16.811C9.5854 16.643 9.3264 16.4097 9.13973 16.111C8.95773 15.8123 8.86673 15.474 8.86673 15.096C8.86673 14.718 8.95773 14.382 9.13973 14.088C9.3264 13.7893 9.5854 13.5583 9.91673 13.395C10.2481 13.227 10.6237 13.143 11.0437 13.143C11.4731 13.143 11.8441 13.2363 12.1567 13.423C12.4694 13.605 12.6911 13.8593 12.8217 14.186L11.7927 14.711C11.6201 14.3703 11.3681 14.2 11.0367 14.2C10.7987 14.2 10.6004 14.2793 10.4417 14.438C10.2877 14.5967 10.2107 14.816 10.2107 15.096C10.2107 15.3807 10.2877 15.6047 10.4417 15.768C10.6004 15.9267 10.7987 16.006 11.0367 16.006C11.3681 16.006 11.6201 15.8357 11.7927 15.495L12.8217 16.02C12.6911 16.3467 12.4694 16.6033 12.1567 16.79C11.8441 16.972 11.4731 17.063 11.0437 17.063ZM15.1855 17.063C14.7795 17.063 14.4132 16.979 14.0865 16.811C13.7598 16.643 13.5032 16.4097 13.3165 16.111C13.1345 15.8123 13.0435 15.474 13.0435 15.096C13.0435 14.7227 13.1345 14.3867 13.3165 14.088C13.5032 13.7893 13.7575 13.5583 14.0795 13.395C14.4062 13.227 14.7748 13.143 15.1855 13.143C15.5962 13.143 15.9648 13.227 16.2915 13.395C16.6182 13.5583 16.8725 13.7893 17.0545 14.088C17.2365 14.382 17.3275 14.718 17.3275 15.096C17.3275 15.474 17.2365 15.8123 17.0545 16.111C16.8725 16.4097 16.6182 16.643 16.2915 16.811C15.9648 16.979 15.5962 17.063 15.1855 17.063ZM15.1855 16.006C15.4188 16.006 15.6102 15.9267 15.7595 15.768C15.9088 15.6047 15.9835 15.3807 15.9835 15.096C15.9835 14.816 15.9088 14.5967 15.7595 14.438C15.6102 14.2793 15.4188 14.2 15.1855 14.2C14.9522 14.2 14.7608 14.2793 14.6115 14.438C14.4622 14.5967 14.3875 14.816 14.3875 15.096C14.3875 15.3807 14.4622 15.6047 14.6115 15.768C14.7608 15.9267 14.9522 16.006 15.1855 16.006Z" fill="#EB5757"/>
<path d="M9.10259 7.143C9.57392 7.143 9.95192 7.283 10.2366 7.563C10.5259 7.843 10.6706 8.26533 10.6706 8.83V11H9.34059V9.047C9.34059 8.529 9.13292 8.27 8.71759 8.27C8.48892 8.27 8.30459 8.34467 8.16459 8.494C8.02926 8.64333 7.96159 8.86733 7.96159 9.166V11H6.63159V7.206H7.89859V7.619C8.04792 7.465 8.22526 7.34833 8.43059 7.269C8.63592 7.185 8.85992 7.143 9.10259 7.143ZM13.4643 11.063C13.0583 11.063 12.692 10.979 12.3653 10.811C12.0386 10.643 11.782 10.4097 11.5953 10.111C11.4133 9.81233 11.3223 9.474 11.3223 9.096C11.3223 8.72267 11.4133 8.38667 11.5953 8.088C11.782 7.78933 12.0363 7.55833 12.3583 7.395C12.685 7.227 13.0536 7.143 13.4643 7.143C13.875 7.143 14.2436 7.227 14.5703 7.395C14.897 7.55833 15.1513 7.78933 15.3333 8.088C15.5153 8.382 15.6063 8.718 15.6063 9.096C15.6063 9.474 15.5153 9.81233 15.3333 10.111C15.1513 10.4097 14.897 10.643 14.5703 10.811C14.2436 10.979 13.875 11.063 13.4643 11.063ZM13.4643 10.006C13.6976 10.006 13.889 9.92667 14.0383 9.768C14.1876 9.60467 14.2623 9.38067 14.2623 9.096C14.2623 8.816 14.1876 8.59667 14.0383 8.438C13.889 8.27933 13.6976 8.2 13.4643 8.2C13.231 8.2 13.0396 8.27933 12.8903 8.438C12.741 8.59667 12.6663 8.816 12.6663 9.096C12.6663 9.38067 12.741 9.60467 12.8903 9.768C13.0396 9.92667 13.231 10.006 13.4643 10.006Z" fill="#EB5757"/>
</svg>
