  <svg xmlns="http://www.w3.org/2000/svg" viewBox="0 0 882 1216" width="882" height="1216" preserveAspectRatio="xMidYMid meet">
  <defs><clipPath id="animationMask_8IMtYfRRDP"><rect width="882" height="1216" x="0" y="0"></rect></clipPath><clipPath id="cp_rwa2pU5k"><path d="M0,0 L308,0 L308,364 L0,364z"></path></clipPath><clipPath id="ahfSR5cI6T"><path fill="#ffffff" clip-rule="nonzero" d=" M6.113,0.369 C-2.685999999999999,3.1849999999999996 -8.696,8.978 -7.31,13.308 C-5.9239999999999995,17.637999999999998 2.3310000000000013,18.866 11.13,16.05 C19.929000000000002,13.234000000000002 25.939,7.442 24.553,3.112 C23.167,-1.218 14.911999999999999,-2.447 6.113,0.369" fill-opacity="1"></path></clipPath><clipPath id="w6M1DmbBWq"><path fill="#ffffff" clip-rule="nonzero" d=" M6.408,16.562 C15.303,19.138 23.506,17.488 24.728,12.875 C25.950000000000003,8.262 19.73,2.4330000000000003 10.835,-0.143 C1.9400000000000013,-2.719 -6.263,-1.0680000000000005 -7.485,3.545 C-8.707,8.158000000000001 -2.486999999999999,13.986 6.408,16.562" fill-opacity="1"></path></clipPath></defs><g clip-path="url(#animationMask_8IMtYfRRDP)"><g clip-path="url(#cp_rwa2pU5k)" transform="matrix(3.74,0,0,3.74,-139.96,-92.68)" opacity="1"><g transform="matrix(0.98,0,0,0.96,62.5897,165.6426)" opacity="1" style="user-select: none;"><g opacity="1" transform="matrix(1,0,0,1,98.084,94.487)"><path fill="rgb(10,10,10)" fill-opacity="1" d="M0 0 M37.348,-81.603 C14.052,-94.237 -14.052,-94.237 -37.348,-81.603 C-93.07300000000001,-55.19799999999999 -69.60300000000001,42.803000000000004 -31.924,79.257 C-17.948,92.77900000000001 1.3149999999999995,88.80199999999999 16.224,75.713 C46.723,49.30199999999999 106.417,-34.19799999999999 37.348,-81.603z"></path></g></g><g clip-path="url(#w6M1DmbBWq)" transform="matrix(0.931,0,0,0.912,100.4433,222.6796)" opacity="1" style="user-select: none;"><g opacity="1" transform="matrix(1,0,0,1,9.681,9.611)"><path fill="rgb(38,38,38)" fill-opacity="1" d="M0 0 M-8.334,-2.398 C-9.431,-3.9560000000000004 -9.058,-6.108 -7.5,-7.204 C-7.052,-7.52 -6.535,-7.723000000000001 -5.992,-7.799 C-0.2859999999999996,-8.862 8.609,-9.361 9.195,-2.223 C9.431000000000001,0.5270000000000001 8.265,3.21 6.092,4.913 C0.47299999999999986,9.361 -5.231999999999999,2.5049999999999994 -8.334,-2.398z"></path></g></g><g clip-path="url(#ahfSR5cI6T)" transform="matrix(0.9776,0.067,-0.0684,0.9577,172.7719,224.4804)" opacity="1" style="user-select: none;"><g opacity="1" transform="matrix(1,-0.0038,0.0038,1,9.562,9.611)"><path fill="rgb(38,38,38)" fill-opacity="1" d="M0 0 M8.454,-2.398 C5.352,2.5049999999999994 -0.3540000000000001,9.361 -5.973,4.913 C-8.146,3.21 -9.312000000000001,0.5270000000000001 -9.076,-2.223 C-8.49,-9.361 0.40499999999999936,-8.862 6.111,-7.799 C7.997999999999999,-7.535 9.312,-5.793 9.049,-3.906 C8.972999999999999,-3.363 8.770000000000001,-2.846 8.454,-2.398z"></path></g></g><g transform="matrix(1.0178,-0.0523,0.0533,0.997,97.6095,251.6642)" opacity="1" style="user-select: none;"><path fill="rgb(38,38,38)" fill-opacity="1" d="M0 0 M51.979,61.508 C45.275788488318504,67.23237875772287 38.390261639558396,70.2869224128566 32.34126163955839,66.72292241285659 C30.602261639558392,65.69892241285659 29.868261639558394,65.35692241285659 28.789261639558394,63.651922412856585 C18.906261639558394,55.20192241285659 1.230999999999998,17.256999999999998 24.293,4.413 C33.191,-0.5739999999999998 44.008,-0.7210000000000001 53.039,4.023 C76.491,16.063 61.23721741127631,53.576993517917316 51.979,61.508z"></path></g><g transform="matrix(0.98,0,0,0.96,117.1319,260.2705)" opacity="1" style="user-select: none;"><g opacity="1" transform="matrix(1,0,0,1,16.641,12.16)"><path fill="rgb(10,10,10)" fill-opacity="1" d="M0 0 M-14.789,-5.454 C-6.020999999999999,-11.91 5.927,-11.91 14.695,-5.454 C16.048000000000002,-4.524 16.391000000000002,-2.674 15.461,-1.321 C15.141,-0.855 14.693999999999999,-0.49 14.174,-0.269 C14.174,-0.269 6.537,2.899 6.537,2.899 C5.676,3.253 5.0329999999999995,3.9929999999999994 4.802,4.895 C4.802,4.895 3.565,9.733 3.565,9.733 C3.2119999999999997,11.021 2.037,11.909999999999998 0.701,11.902 C0.701,11.902 -1.208,11.902 -1.208,11.902 C-2.543,11.909999999999998 -3.718,11.021 -4.072,9.733 C-4.072,9.733 -5.352,4.721 -5.352,4.721 C-5.574000000000001,3.8280000000000003 -6.199,3.09 -7.044,2.725 C-7.044,2.725 -14.29,-0.421 -14.29,-0.421 C-15.763,-1.1179999999999999 -16.391000000000002,-2.8779999999999997 -15.694,-4.35 C-15.487,-4.787 -15.176,-5.1659999999999995 -14.789,-5.454z"></path></g></g><g></g><g transform="matrix(1,0,0,1,166.6936,42.9458)" opacity="1" style="user-select: none;"><g opacity="1" transform="matrix(1,0,0,1,51.234,66.42)"><path fill="rgb(10,10,10)" fill-opacity="1" d="M0 0 M48.814,-48.814 C48.814,-48.814 18.440000000000005,66.17 -16.272,61.831 C-50.984,57.492000000000004 16.27,31.458 16.27,7.593 C16.27,-16.271 -8.874000000000002,-38.422 7.592,-46.644 C16.27,-50.983 9.762000000000002,-31.458 20.609,-29.288 C31.457,-27.119 37.964999999999996,-66.17 44.474,-64.001 C50.983,-61.831 50.984,-57.492000000000004 48.814,-48.814z"></path></g></g><g transform="matrix(0.9998,-0.0148,0.0206,0.9998,213.8044,158.0606)" opacity="1" style="user-select: none;"><g opacity="1" transform="matrix(1,0,0,1,26.237,25.338)"><path fill="rgb(10,10,10)" fill-opacity="1" d="M0 0 M-11.516,16.019 C6.122000000000002,25.088 19.303,-1.5120000000000005 21.855,-14.404 C23.123,-20.808 21.442999999999998,-23.269 16.612,-25.409 C15.232,-26.020999999999997 13.727,-26.297 12.22,-26.215 C-3.898999999999999,-26.717 -25.987000000000002,-21.492 -23.774,-1.771 C-22.961000000000002,5.851 -18.349,12.544999999999998 -11.516,16.019z"></path></g></g><g transform="matrix(1,0,0,1,55.5615,44.7764)" opacity="1" style="user-select: none;"><g opacity="1" transform="matrix(1,0,0,1,51.233,66.42)"><path fill="rgb(10,10,10)" fill-opacity="1" d="M0 0 M-48.814,-48.814 C-48.814,-48.814 -18.441000000000003,66.17 16.271,61.831 C50.983000000000004,57.492000000000004 -16.271,31.458 -16.271,7.593 C-16.271,-16.271 8.873000000000001,-38.422000000000004 -7.593,-46.645 C-16.271,-50.983000000000004 -9.763,-31.458 -20.61,-29.288 C-31.458,-27.119 -37.966,-66.17 -44.475,-64.001 C-50.983000000000004,-61.831 -50.983,-57.492000000000004 -48.814,-48.814z"></path></g></g><g transform="matrix(1.0048,0,0,0.9952,60.5479,153.221)" opacity="1" style="user-select: none;"><g opacity="1" transform="matrix(1,0,0,1,25.808,26.261)"><path fill="rgb(10,10,10)" fill-opacity="1" d="M0 0 M19.832,4.988 C25.559,-14.017 1.0140000000000011,-21.082 -9.007,-24.954 C-16.401,-28.116 -20.631,-26.733999999999998 -22.444,-23.397 C-23.157999999999998,-22.084 -23.239,-20.143 -23.317,-18.651 C-22.206,-2.2650000000000006 -14.36,26.011 4.579,20.261 C11.918,18.076 17.657,12.33 19.832,4.988z"></path></g></g><g></g></g></g>
</svg>